<svg viewBox="0 0 48 48" fill="none" xmlns="http://www.w3.org/2000/svg">
<path d="M8.56125 21.6094H10.7019C11.5144 21.6094 12.1081 21.3281 12.4831 20.7656C12.8685 20.1927 13.0613 19.4323 13.0613 18.4844C13.0613 17.5781 12.8633 16.875 12.4675 16.375C12.0821 15.8646 11.5613 15.6094 10.905 15.6094C10.2904 15.6094 9.78521 15.849 9.38938 16.3281C9.00396 16.8073 8.81125 17.4115 8.81125 18.1406H4.38938C4.38938 16.9531 4.66021 15.8906 5.20188 14.9531C5.75396 14.0052 6.51958 13.2656 7.49875 12.7344C8.48833 12.2031 9.58208 11.9375 10.78 11.9375C12.8738 11.9375 14.5144 12.5156 15.7019 13.6719C16.8894 14.8281 17.4831 16.4115 17.4831 18.4219C17.4831 19.4531 17.2123 20.4115 16.6706 21.2969C16.1394 22.1719 15.4363 22.8438 14.5613 23.3125C15.6342 23.7708 16.431 24.4583 16.9519 25.375C17.4831 26.2917 17.7488 27.375 17.7488 28.625C17.7488 30.6458 17.1029 32.2656 15.8113 33.4844C14.53 34.7031 12.8425 35.3125 10.7488 35.3125C8.80083 35.3125 7.2175 34.7135 5.99875 33.5156C4.79042 32.3073 4.18625 30.724 4.18625 28.7656H8.60813C8.60813 29.5781 8.82167 30.2604 9.24875 30.8125C9.67583 31.3646 10.2175 31.6406 10.8738 31.6406C11.6342 31.6406 12.2331 31.3594 12.6706 30.7969C13.1185 30.2344 13.3425 29.4844 13.3425 28.5469C13.3425 26.3073 12.4727 25.1823 10.7331 25.1719H8.56125V21.6094ZM32.75 25.5938C32.75 28.7396 32.1771 31.1458 31.0312 32.8125C29.8958 34.4792 28.2708 35.3125 26.1562 35.3125C24.0625 35.3125 22.4427 34.5052 21.2969 32.8906C20.1615 31.2656 19.5729 28.9427 19.5312 25.9219V21.625C19.5312 18.4896 20.099 16.0938 21.2344 14.4375C22.3698 12.7708 24 11.9375 26.125 11.9375C28.25 11.9375 29.8802 12.7604 31.0156 14.4062C32.151 16.0521 32.7292 18.401 32.75 21.4531V25.5938ZM28.3125 20.9844C28.3125 19.1927 28.1354 17.849 27.7812 16.9531C27.4271 16.0573 26.875 15.6094 26.125 15.6094C24.7188 15.6094 23.9896 17.25 23.9375 20.5312V26.2031C23.9375 28.0365 24.1146 29.401 24.4688 30.2969C24.8333 31.1927 25.3958 31.6406 26.1562 31.6406C26.875 31.6406 27.4062 31.224 27.75 30.3906C28.1042 29.5469 28.2917 28.2604 28.3125 26.5312V20.9844ZM33.7161 28.2734C33.7161 26.1953 34.0677 24.6445 34.7708 23.6211C35.4739 22.5977 36.4973 22.0859 37.8411 22.0859C38.8177 22.0859 39.6302 22.5078 40.2786 23.3516V17H43.6184V35H40.6067L40.4544 33.7109C39.7747 34.7266 38.8997 35.2344 37.8294 35.2344C36.5013 35.2344 35.4856 34.7266 34.7825 33.7109C34.0872 32.6953 33.7317 31.2031 33.7161 29.2344V28.2734ZM37.0442 29.1055C37.0442 30.3555 37.177 31.2305 37.4427 31.7305C37.7083 32.2227 38.1575 32.4688 38.7903 32.4688C39.4466 32.4688 39.9427 32.1758 40.2786 31.5898V25.8008C39.9505 25.1758 39.4583 24.8633 38.802 24.8633C38.1927 24.8633 37.7473 25.1094 37.4661 25.6016C37.1848 26.0938 37.0442 26.9688 37.0442 28.2266V29.1055Z" fill="currentColor" />
</svg>
